{"title":"Broken City 2013 CAM XViD 1MPERiUM","uid":8083945,"size":1514123603,"categoryP":"video","categoryS":"movies","magnet":"?xt=urn:btih:25057077a7696dc58da2d6ec2bd819d0e0558290&amp;dn=Broken+City+2013+CAM+XViD+1MPERiUM&amp;tr=udp%3A%2F%2Ftracker.openbittorrent.com%3A80&amp;tr=udp%3A%2F%2Fopen.demonii.com%3A1337&amp;tr=udp%3A%2F%2Ftracker.coppersurfer.tk%3A6969&amp;tr=udp%3A%2F%2Fexodus.desync.com%3A6969","seeders":1,"leechers":0,"uploader":"juggs99","files":3,"time":1359580216,"description":"Reworked colouring hue and saturation ,deinterlaced levels and chroma smoother,then slight sharpen\n\n\nFormat : AVI\nFormat/Info : Audio Video Interleave\nFile size : 1.39 GiB\nDuration : 1h 42mn\nOverall bit rate : 1 951 Kbps\nWriting application : VirtualDubMod 1.5.10.3 | www.virtualdub-fr.org || (build 2550/release)\nWriting library : VirtualDubMod build 2550/release\n\nVideo\nID : 0\nFormat : MPEG-4 Visual\nFormat profile : Advanced Simple@L5\nFormat settings, BVOP : 2\nFormat settings, QPel : No\nFormat settings, GMC : No warppoints\nFormat settings, Matrix : Default (H.263)\nMuxing mode : Packed bitstream\nCodec ID : XVID\nCodec ID/Hint : XviD\nDuration : 1h 42mn\nBit rate : 1 811 Kbps\nWidth : 692 pixels\nHeight : 332 pixels\nDisplay aspect ratio : 2.084\nFrame rate : 29.970 fps\nColor space : YUV\nChroma subsampling : 4:2:0\nBit depth : 8 bits\nScan type : Progressive\nCompression mode : Lossy\nBits/(Pixel*Frame) : 0.263\nStream size : 1.29 GiB (93%)\nWriting library : XviD 64\n\nAudio\nID : 1\nFormat : MPEG Audio\nFormat version : Version 1\nFormat profile : Layer 3\nCodec ID : 55\nCodec ID/Hint : MP3\nDuration : 1h 42mn\nBit rate mode : Constant\nBit rate : 128 Kbps\nChannel(s) : 2 channels\nSampling rate : 44.1 KHz\nCompression mode : Lossy\nStream size : 93.6 MiB (7%)\nAlignment : Split accross interleaves\nInterleave, duration : 33 ms (1.00 video frame)\nInterleave, preload duration : 500 ms\n\n\n\n\n\n\nSources MATiNE/ Thx\n\n\n &lt;a href=&quot;\nhttp://www.shotpix.com/images/03964267939041347830.png&quot; rel=&quot;nofollow&quot; target=&quot;_NEW&quot;&gt;\nhttp://www.shotpix.com/images/03964267939041347830.png&lt;/a&gt; &lt;a href=&quot;\nhttp://www.shotpix.com/images/02453280464157106220.png&quot; rel=&quot;nofollow&quot; target=&quot;_NEW&quot;&gt;\nhttp://www.shotpix.com/images/02453280464157106220.png&lt;/a&gt; &lt;a href=&quot;\nhttp://www.shotpix.com/images/79032520032971532028.png&quot; rel=&quot;nofollow&quot; target=&quot;_NEW&quot;&gt;\nhttp://www.shotpix.com/images/79032520032971532028.png&lt;/a&gt; &lt;a href=&quot;\nhttp://www.shotpix.com/images/01123329535310241121.png&quot; rel=&quot;nofollow&quot; target=&quot;_NEW&quot;&gt;\nhttp://www.shotpix.com/images/01123329535310241121.png&lt;/a&gt;","torrent":{"xt":"urn:btih:25057077a7696dc58da2d6ec2bd819d0e0558290","amp;dn":"Broken+City+2013+CAM+XViD+1MPERiUM","amp;tr":["udp%3A%2F%2Ftracker.openbittorrent.com%3A80","udp%3A%2F%2Fopen.demonii.com%3A1337","udp%3A%2F%2Ftracker.coppersurfer.tk%3A6969","udp%3A%2F%2Fexodus.desync.com%3A6969"],"infoHash":"25057077a7696dc58da2d6ec2bd819d0e0558290","infoHashBuffer":{"type":"Buffer","data":[37,5,112,119,167,105,109,197,141,162,214,236,43,216,25,208,224,85,130,144]},"announce":[],"urlList":[]}}